<svg width="51" height="45" viewBox="0 0 51 45" fill="none" xmlns="http://www.w3.org/2000/svg">
<path d="M19.0699 43C20.2483 43 21.2036 42.1259 21.2036 41.0476C21.2036 39.9694 20.2483 39.0952 19.0699 39.0952C17.8915 39.0952 16.9362 39.9694 16.9362 41.0476C16.9362 42.1259 17.8915 43 19.0699 43Z" stroke="white" stroke-width="3" stroke-linecap="round" stroke-linejoin="round"/>
<path d="M42.5408 43C43.7193 43 44.6746 42.1259 44.6746 41.0476C44.6746 39.9694 43.7193 39.0952 42.5408 39.0952C41.3624 39.0952 40.4071 39.9694 40.4071 41.0476C40.4071 42.1259 41.3624 43 42.5408 43Z" stroke="white" stroke-width="3" stroke-linecap="round" stroke-linejoin="round"/>
<path d="M2 2H10.5349L16.2533 28.1424C16.4484 29.0412 16.9828 29.8487 17.763 30.4233C18.5432 30.998 19.5194 31.3033 20.5208 31.2857H41.2606C42.262 31.3033 43.2382 30.998 44.0184 30.4233C44.7985 29.8487 45.3329 29.0412 45.5281 28.1424L48.942 11.7619H12.6686" stroke="white" stroke-width="3" stroke-linecap="round" stroke-linejoin="round"/>
</svg>
