<svg width="31" height="22" viewBox="0 0 31 22" fill="none" xmlns="http://www.w3.org/2000/svg">
<path d="M29.5742 16.0402C29.7002 15.4344 29.7002 14.8156 29.5742 14.2098L30.824 13.5695C30.9694 13.4965 31.0323 13.3461 30.9839 13.2043C30.6593 12.2762 30.1022 11.434 29.3756 10.7379C29.2642 10.6305 29.0849 10.6047 28.9396 10.6777L27.6898 11.318C27.1618 10.9184 26.5562 10.609 25.9023 10.4027V9.12227C25.9023 8.97617 25.786 8.84727 25.6261 8.81719C24.5459 8.60234 23.4462 8.61094 22.4192 8.81719C22.2594 8.84727 22.1431 8.97617 22.1431 9.12227V10.4027C21.4891 10.609 20.8836 10.9184 20.3556 11.318L19.1058 10.6777C18.9653 10.6047 18.7812 10.6305 18.6698 10.7379C17.9431 11.434 17.3861 12.2762 17.0615 13.2043C17.013 13.3461 17.0809 13.4965 17.2213 13.5695L18.4712 14.2098C18.3452 14.8156 18.3452 15.4344 18.4712 16.0402L17.2213 16.6805C17.076 16.7535 17.013 16.9039 17.0615 17.0457C17.3861 17.9738 17.9431 18.8117 18.6698 19.5121C18.7812 19.6195 18.9604 19.6453 19.1058 19.5723L20.3556 18.932C20.8836 19.3316 21.4891 19.641 22.1431 19.8473V21.1277C22.1431 21.2738 22.2594 21.4027 22.4192 21.4328C23.4995 21.6477 24.5992 21.6391 25.6261 21.4328C25.786 21.4027 25.9023 21.2738 25.9023 21.1277V19.8473C26.5562 19.641 27.1618 19.3316 27.6898 18.932L28.9396 19.5723C29.0801 19.6453 29.2642 19.6195 29.3756 19.5121C30.1022 18.816 30.6593 17.9738 30.9839 17.0457C31.0323 16.9039 30.9645 16.7535 30.824 16.6805L29.5742 16.0402ZM24.0275 17.209C22.7293 17.209 21.6781 16.2723 21.6781 15.125C21.6781 13.9777 22.7341 13.041 24.0275 13.041C25.321 13.041 26.377 13.9777 26.377 15.125C26.377 16.2723 25.3258 17.209 24.0275 17.209ZM10.8511 11C14.276 11 17.0518 8.53789 17.0518 5.5C17.0518 2.46211 14.276 0 10.8511 0C7.42625 0 4.65049 2.46211 4.65049 5.5C4.65049 8.53789 7.42625 11 10.8511 11ZM20.5978 20.7324C20.4864 20.6809 20.375 20.6207 20.2684 20.5648L19.8857 20.7625C19.595 20.9086 19.2656 20.9902 18.9362 20.9902C18.4082 20.9902 17.8995 20.7926 17.5362 20.4488C16.6497 19.598 15.9715 18.5625 15.5888 17.4582C15.3224 16.6977 15.6809 15.8941 16.456 15.4945L16.8387 15.2969C16.8338 15.1852 16.8338 15.0734 16.8387 14.9617L16.456 14.7641C15.6809 14.3688 15.3224 13.5609 15.5888 12.8004C15.6324 12.6758 15.6954 12.5512 15.7438 12.4266C15.5598 12.4137 15.3805 12.375 15.1916 12.375H14.3826C13.3072 12.8133 12.1107 13.0625 10.8511 13.0625C9.59164 13.0625 8.39995 12.8133 7.31968 12.375H6.51069C2.91624 12.375 0 14.9617 0 18.15V19.9375C0 21.0762 1.04152 22 2.32525 22H19.377C19.8663 22 20.3217 21.8625 20.6947 21.6348C20.6366 21.4715 20.5978 21.3039 20.5978 21.1277V20.7324Z" fill="white" fill-opacity="0.8"/>
</svg>
