<svg width="75" height="75" viewBox="0 0 75 75" fill="none" xmlns="http://www.w3.org/2000/svg">
<path fill-rule="evenodd" clip-rule="evenodd" d="M37.5 5.35714C29.3637 5.35714 22.7679 11.9529 22.7679 20.0893C22.7679 28.2256 29.3637 34.8214 37.5 34.8214C45.6363 34.8214 52.2321 28.2256 52.2321 20.0893C52.2321 11.9529 45.6363 5.35714 37.5 5.35714ZM17.4107 20.0893C17.4107 8.99428 26.405 0 37.5 0C48.595 0 57.5893 8.99428 57.5893 20.0893C57.5893 31.1843 48.595 40.1786 37.5 40.1786C26.405 40.1786 17.4107 31.1843 17.4107 20.0893Z" fill="white"/>
<path fill-rule="evenodd" clip-rule="evenodd" d="M15.4315 52.6859C21.84 48.011 29.5676 45.492 37.5 45.492C45.4324 45.492 53.16 48.011 59.5685 52.6859C65.977 57.3607 70.7354 63.9499 73.1578 71.5035C73.419 72.3182 73.2754 73.2088 72.7711 73.9C72.2669 74.5912 71.4628 75 70.6071 75H4.39286C3.53724 75 2.73311 74.5912 2.22887 73.9C1.72462 73.2088 1.58095 72.3182 1.84223 71.5035C4.26455 63.9499 9.02298 57.3607 15.4315 52.6859ZM37.5 50.8491C30.7024 50.8491 24.0804 53.0078 18.5887 57.0139C14.1111 60.2801 10.5736 64.6368 8.29466 69.6428H66.7053C64.4264 64.6368 60.8888 60.2801 56.4113 57.0139C50.9196 53.0078 44.2976 50.8491 37.5 50.8491Z" fill="white"/>
</svg>
