<svg width="38" height="34" viewBox="0 0 38 34" fill="none" xmlns="http://www.w3.org/2000/svg">
<path d="M33.3783 4.65222C32.5475 3.81139 31.5611 3.14438 30.4755 2.6893C29.3898 2.23423 28.2262 2 27.051 2C25.8758 2 24.7122 2.23423 23.6265 2.6893C22.5409 3.14438 21.5545 3.81139 20.7237 4.65222L18.9996 6.39642L17.2754 4.65222C15.5973 2.95459 13.3213 2.00088 10.9481 2.00088C8.57494 2.00088 6.29895 2.95459 4.62085 4.65222C2.94275 6.34984 2 8.65231 2 11.0531C2 13.4539 2.94275 15.7564 4.62085 17.454L6.34499 19.1982L18.9996 32L31.6541 19.1982L33.3783 17.454C34.2094 16.6136 34.8688 15.6157 35.3186 14.5174C35.7685 13.4191 36 12.2419 36 11.0531C36 9.86428 35.7685 8.68709 35.3186 7.5888C34.8688 6.49052 34.2094 5.49265 33.3783 4.65222V4.65222Z" stroke="white" stroke-width="3" stroke-linecap="round" stroke-linejoin="round"/>
</svg>
